<?xml version="1.0" encoding="UTF-8"?>
<svg id="Layer_2" data-name="Layer 2" xmlns="http://www.w3.org/2000/svg" viewBox="0 0 144.74 129.36">
  <defs>
    <style>
      .cls-1 {
        fill: #ff7f00;
        stroke-width: 0px;
      }
    </style>
  </defs>
  <g id="Layer_1-2" data-name="Layer 1">
    <path class="cls-1" d="M144.74,72.37C144.74,32.41,112.33,0,72.37,0S0,32.41,0,72.37c0,17.38,6.12,33.35,16.34,45.81.28-.82.4-1.69.22-2.7-.4-2.25.65-3.22,3.02-3.15,3.16.1,3.17-.03,3.18-3.28.03-6.48-.1-12.95.5-19.43.17-1.88.84-2.73,2.66-2.54,2.51.28,4.16-.28,3.74-3.33-.2-1.44.66-2.08,2.05-2.02,1.41.05,2.38-.36,2.42-1.99.03-1.12.75-1.54,1.79-1.52,1.22.01,2.44,0,3.66.02.49,0,1.3.05,1.28.44-.09,2.3,2.63,3.5,2.18,5.93-.24,1.28.05,2.37,1.77,2.56,1.75.2,1.43,1.71,1.44,2.88.03,7.87.02,15.74.02,23.61,0,1.21-.12,2.46.02,3.65.15,1.12-.76,3.11,1.27,3.05,1.73-.06.94-1.92,1.06-2.99.12-1.17.57-1.83,1.41-2.75,1.37-1.5,3.17-3,3.08-5.52-.12-3.73.04-7.47-.05-11.21-.05-2.01.75-2.81,2.74-2.65,1.38.11,2.76,0,4.15.02,1.2.04,2.25-.08,2.77-1.41.31-.79,1.13-.81,1.83-1.04,2.96-.89,3.56-1.73,3.56-4.88v-32.87c-.01-1.64-.23-3.31,2.06-3.74.78-.14.92-1.08,1.19-1.74.26-.67.41-1.61,1.22-1.67,2.49-.21,2.35-1.91,2.35-3.67.01-5.12.09-10.23.14-15.33.01-1.54.06-3.08.88-4.55.19,4.19.41,8.4.56,12.61.09,2.83.11,5.67.12,8.52,0,1.18.24,2.08,1.62,2.25.91.09,1.43.69,1.73,1.51.43,1.24.83,2.3,2.46,2.62,1.48.3.95,1.87.95,2.93.04,14.52.02,29.06.02,43.57,0,.75.04,1.48.01,2.2-.06,1.3.45,2.04,1.83,1.96,1.52-.09,1.99.77,1.99,2.1-.01,1.8.2,3.61-.03,5.36-.47,3.46,1.24,6.32,2.3,9.38.19.54.41,1.06.34,1.62-.19,1.54.21,2.73,1.72,3.14,3.57-4.51,3.7-9.83,3.52-15.32-.19-5.43,0-10.87-.07-16.31-.02-1.67.52-2.72,2.11-3.39,2.4-1,4.71-2.22,7.07-3.29,2.3-1.03,2.6-.84,2.62,1.78.02,7.54,0,15.09.01,22.64,0,1.27-.29,2.69,1.44,3.21.18.05.42.36.41.54-.06,2.19.35,4,3.06,4.19.15,0,.41.54.4.81-.09,1.75.55,2.7,2.46,2.79,1.04.03,1.05,1.08,1.06,1.9.02,1.37.01,2.75.03,4.13.01.79.17,1.5,1.15,1.55.06,0,.11,0,.16-.01.4-.31.79-.62,1.18-.94.02-.13.04-.28.03-.42-.05-1.8.24-3.1,2.45-3.37,1.02-.13.74-1.49.75-2.34.02-6.49,0-12.98.02-19.48.04-6.43,2.89-7.83,8.04-7.81,4.9.02,7.67,1.34,7.67,7.63v2.07c4.86-9.72,7.6-20.7,7.6-32.32ZM128.7,45.98c-.39.83-1.14,1.23-1.9,1.59-1.69.8-3.5,1.25-5.32,1.65-1.33.3-2.68.55-4.04.72-.15.02-.25.09-.31.23-1.08,2.35-2.15,4.69-3.23,7.04-.12.27-.25.53-.37.8-.2.43-.52.7-1.01.75-.3.03-.6.06-.9.09-.26.04-.35-.06-.35-.32,0-1.09,0-2.19,0-3.29,0-.56,0-1.13,0-1.7,0-.18-.06-.31-.2-.43-.63-.55-1.26-1.11-1.89-1.67-.13-.13-.27-.18-.45-.16-.93.09-1.87.16-2.81.2-1.41.06-2.82.05-4.23,0-.73-.02-1.47-.07-2.2-.11-.18-.01-.19.11-.21.22-.11.44-.23.89-.32,1.34-.07.35-.32.44-.6.5-.28.07-.51.02-.7-.23-.51-.7-1.04-1.38-1.55-2.07-.13-.18-.26-.27-.48-.26-.19,0-.37-.04-.55-.09-.49-.13-.61-.49-.28-.87.12-.14.1-.19-.01-.3-1.17-1.08-2.34-2.18-3.51-3.26-.33-.31-.3-.5.12-.67.47-.19.9-.1,1.34.11,1.1.52,2.21,1.04,3.32,1.57.08.04.16.1.3.09-.06-.67-.09-1.34-.17-2.01-.11-.9-.12-.89.76-1.04.17-.03.33.02.48.09.38.17.71.41.99.72.79.85,1.57,1.69,2.36,2.54.08.09.15.13.28.11,1.39-.27,2.79-.53,4.18-.79.15-.02.19-.08.07-.2-.64-.65-1.25-1.33-1.92-1.94-.37-.34-.83-.56-1.25-.82-2.9-1.82-5.79-3.64-8.68-5.46q-.3-.19-.02-.41c.32-.23.6-.5.97-.65h.77c.08.04.17.08.26.12,3.54,1.38,7.08,2.75,10.62,4.12l8.79,3.42c.25.1.48.1.74.05,1.18-.23,2.36-.45,3.54-.68,1.13-.22,2.29-.33,3.36-.82.16-.07.35-.11.53-.15.86-.18,1.72-.26,2.54.11.64.29,1.28.52,1.96.7.48.14.92.34,1.17.82v.7Z"/>
  </g>
</svg>