<?xml version="1.0" encoding="UTF-8"?>
<svg id="Layer_2" data-name="Layer 2" xmlns="http://www.w3.org/2000/svg" viewBox="0 0 287.94 31.78">
  <defs>
    <style>
      .cls-1 {
        fill: #ff7f00;
        stroke-width: 0px;
      }
    </style>
  </defs>
  <g id="Layer_1-2" data-name="Layer 1">
    <g>
      <path class="cls-1" d="M201.99,25.72v-.51c0-1.55-.68-1.87-1.88-1.88-1.26,0-1.97.34-1.97,1.92,0,1.6,0,3.19,0,4.79,0,.21.07.54-.18.57-.54.07-.62.39-.6.83,0,.04,0,.07,0,.1-.09.08-.19.16-.29.23-.01,0-.03,0-.04,0-.24,0-.28-.18-.28-.38,0-.34,0-.68,0-1.02,0-.2,0-.46-.26-.47-.47-.02-.63-.25-.61-.68,0-.07-.06-.2-.1-.2-.67-.05-.76-.49-.75-1.03,0-.04-.06-.12-.1-.13-.43-.13-.35-.48-.35-.79,0-1.85,0-3.71,0-5.56,0-.64-.08-.69-.64-.44-.58.26-1.15.56-1.74.81-.39.16-.52.42-.52.83.02,1.34-.03,2.67.01,4.01.05,1.35.01,2.66-.86,3.76-.37-.1-.47-.39-.42-.77.02-.14-.04-.26-.08-.4-.26-.75-.68-1.45-.56-2.3.06-.43,0-.88,0-1.32,0-.33-.11-.54-.49-.52-.34.02-.46-.16-.45-.48,0-.18,0-.36,0-.54,0-3.57,0-7.14,0-10.71,0-.26.13-.65-.23-.72-.4-.08-.5-.34-.61-.64-.07-.2-.2-.35-.42-.37-.34-.04-.4-.26-.4-.55,0-.7,0-1.4-.03-2.09-.04-1.03-.09-2.07-.14-3.1-.2.36-.21.74-.22,1.12-.01,1.26-.03,2.51-.03,3.77,0,.43.03.85-.58.9-.2.02-.24.25-.3.41-.07.16-.1.39-.29.43-.56.11-.51.51-.51.92,0,2.69,0,5.38,0,8.08,0,.77-.15.98-.88,1.2-.17.05-.37.06-.45.25-.13.33-.39.36-.68.35-.34,0-.68.02-1.02,0-.49-.04-.69.16-.67.65.02.92-.02,1.83.01,2.75.02.62-.42.99-.76,1.36-.21.23-.32.39-.35.67-.03.27.17.72-.26.73-.5.02-.28-.47-.31-.75-.04-.29,0-.6,0-.9,0-1.93,0-3.87,0-5.8,0-.28.08-.66-.35-.71-.42-.05-.49-.31-.43-.63.11-.6-.56-.89-.53-1.45,0-.1-.2-.11-.32-.11-.3,0-.6,0-.9,0-.26,0-.43.1-.44.37,0,.4-.25.5-.59.49-.34-.01-.55.15-.5.5.1.75-.3.88-.92.82-.45-.05-.61.16-.65.62-.15,1.59-.12,3.18-.12,4.77,0,.8,0,.83-.78.81-.58-.02-.84.22-.74.77.04.25.01.46-.05.67-2.51-3.06-4.02-6.98-4.02-11.25,0-9.82,7.96-17.78,17.78-17.78s17.78,7.96,17.78,17.78c0,2.85-.67,5.55-1.87,7.94Z"/>
      <path class="cls-1" d="M21.2,1.57v11.15s0,.04-.02.06c-.01.01-.03.02-.06.02h-5.23s-.04,0-.04-.02V1.57H0v28.65h15.85v-9.38s.01-.02.04-.02h5.23s.04,0,.06.02c.01.01.02.03.02.06v9.32h15.85V1.57h-15.85Z"/>
      <path class="cls-1" d="M76.37,25.42l-1.34-4.77c-.45-1.59-.9-3.18-1.36-4.77-.46-1.59-.91-3.18-1.36-4.77-.45-1.59-.89-3.18-1.34-4.77s-.9-3.18-1.36-4.76h-23.72c-.43,1.58-.87,3.16-1.32,4.76s-.89,3.18-1.34,4.77l-1.34,4.77c-.45,1.59-.89,3.18-1.34,4.77s-.89,3.18-1.34,4.77c-.45,1.59-.9,3.19-1.36,4.79h16.31l.65-3.74h5.19l.65,3.74h17.03c-.46-1.6-.91-3.2-1.36-4.79ZM66.39,14.85c-.06.14-.14.26-.25.36-.17.15-.36.26-.56.36-.52.25-1.06.42-1.61.57-.9.24-1.82.43-2.74.55-.06,0-.08.03-.1.08-.09.2-.18.39-.26.58-.29.62-.57,1.24-.85,1.86-.18.39-.36.78-.54,1.18-.08.17-.21.28-.39.31.15.9.32,1.92.51,3.07,0,.03-.01.04-.04.04h-4.24v-.04c.2-1.25.38-2.35.53-3.3.15-.95.32-1.97.5-3.06,0-.01,0-.03,0-.04-.2.01-.39.02-.59.03-.39.01-.79.01-1.19,0-.46,0-.92-.02-1.37-.05-.04,0-.09,0-.13-.01-.06,0-.08.02-.1.07-.04.22-.1.43-.15.65-.03.11-.09.18-.2.2-.04.01-.08.03-.13.03-.11.01-.19-.02-.26-.11-.24-.33-.49-.66-.73-.98-.04-.06-.1-.08-.17-.08-.13,0-.25-.03-.38-.08-.1-.04-.13-.09-.11-.2.01-.08.04-.15.11-.19.04-.03.03-.04,0-.08-.14-.13-.28-.26-.43-.39-.23-.21-.46-.43-.68-.64-.2-.18-.39-.36-.58-.54-.08-.08-.08-.14.01-.2.2-.12.41-.13.61-.03.34.15.67.31,1.01.47.22.11.45.21.67.32.05.03.06.01.06-.04-.03-.33-.06-.67-.09-1,0-.08-.01-.15-.02-.22,0-.04.01-.06.06-.07.11-.02.22-.04.34-.06.08-.01.16.03.24.06.2.1.35.25.5.41.28.31.57.61.85.92.05.06.11.11.16.17.03.03.06.04.1.03.42-.08.85-.16,1.27-.24.24-.04.46-.09.7-.13.02,0,.04,0,.05-.02,0-.02-.02-.03-.03-.04-.31-.31-.6-.62-.91-.92-.09-.08-.2-.13-.31-.2-1.15-.72-2.29-1.44-3.44-2.16-.28-.18-.56-.35-.84-.53q-.06-.04,0-.1c.11-.09.23-.18.35-.26.15-.1.33-.13.5-.06,1.67.64,3.33,1.29,4.99,1.94.31.11.6.24.91.35.12-.71.25-1.48.39-2.32h.04c.18.97.34,1.86.47,2.67.74.29,1.5.59,2.24.87.09.04.17.01.25,0,.89-.17,1.78-.33,2.67-.5.14-.03.27-.1.39-.15.43-.15.86-.2,1.3-.12.08.01.16.04.23.08.25.14.53.22.81.29.12.04.24.08.34.14.12.07.19.17.24.29v.24Z"/>
      <path class="cls-1" d="M57.91,13.71c-.3-.11-.6-.23-.9-.35.12-.71.25-1.48.39-2.32h.04c.18.97.34,1.86.47,2.67Z"/>
      <path class="cls-1" d="M59.58,23.76s-.01.04-.04.04h-4.24v-.04c.2-1.25.38-2.35.53-3.3.15-.95.32-1.97.5-3.06,0-.01,0-.03,0-.04.33-.02.66-.04.99-.08.06,0,.1.01.14.05.31.27.61.55.92.81.05.04.07.09.07.15,0,.81,0,1.63,0,2.44h.19c.11-.03.22-.03.34-.04.03,0,.07,0,.1-.02.15.9.32,1.92.51,3.07Z"/>
      <path class="cls-1" d="M111.14,18.87h-8.67v-.15h2.83c2.42,0,4.44-.43,6.05-1.3,1.62-.87,2.83-1.98,3.63-3.34.8-1.36,1.2-2.77,1.2-4.22s-.37-2.73-1.11-3.99c-.74-1.26-1.85-2.29-3.32-3.09-1.48-.8-3.34-1.2-5.58-1.2h-27.61v28.65h15.85V13.25s0-.04.02-.04.03-.01.06-.04h4.35c.69,0,1.26.13,1.72.38.46.25.8.59,1.03.99.23.41.34.84.34,1.3,0,.33-.06.66-.19.97-.13.32-.32.6-.57.86-.25.25-.58.46-.97.61-.39.15-.85.23-1.36.23h-4.43c.51,1.3,1.01,2.6,1.51,3.9.5,1.3.99,2.6,1.49,3.9.5,1.3.99,2.6,1.47,3.9h18.14l-5.88-11.34Z"/>
      <path class="cls-1" d="M144.68,1.57l-3.06,14.17s0,.04-.02.06-.03.01-.04,0-.02-.03-.02-.06c-.36-1.58-.72-3.16-1.09-4.74-.37-1.58-.73-3.15-1.09-4.72-.36-1.57-.73-3.14-1.11-4.72h-20.36v28.65h13.94v-15.77s.01-.04.04-.04.04.01.04.04c.64,2.62,1.26,5.25,1.87,7.87.61,2.62,1.23,5.26,1.87,7.91h9.74l3.74-15.89s0-.04.02-.04h.04s.02.01.02.04v15.89h14.7V1.57h-19.25Z"/>
      <path class="cls-1" d="M230.81,1.57v15.81s0,.04-.02.04h-.06l-5.39-15.85h-17.11v28.65h14.7v-13.75s0-.04.02-.04h.04s.02.01.02.04l4.81,13.75h17.68V1.57h-14.7Z"/>
      <path class="cls-1" d="M270.6,1.57c-.25.92-.51,1.83-.76,2.75-.25.92-.52,1.83-.78,2.75-.27.92-.53,1.83-.78,2.75s-.51,1.83-.76,2.75l-.04.04-.04-.04c-.31-1.22-.62-2.44-.95-3.67-.33-1.22-.66-2.44-.97-3.67-.32-1.22-.64-2.44-.97-3.67h-18.33c.89,1.53,1.78,3.06,2.65,4.58.88,1.53,1.76,3.05,2.65,4.56.89,1.52,1.78,3.04,2.65,4.56.88,1.53,1.76,3.06,2.64,4.58.88,1.53,1.76,3.06,2.65,4.58v5.77h15.85v-5.73c1.4-2.55,2.81-5.09,4.22-7.64,1.41-2.55,2.82-5.09,4.22-7.64l4.2-7.64h-17.34Z"/>
    </g>
  </g>
</svg>